<svg xmlns="http://www.w3.org/2000/svg" viewBox="0 0 20 20" width="20" height="20">
<path d="M19.782,5.841c-0.733-1.266-2.684-1.229-3.901-1.137c-0.91,0.069-1.713,0.366-2.502,0.802
	c-0.402,0.222-0.832,0.41-1.272,0.582c-1.71-0.61-3.511-0.947-5.276-1.35C5.802,4.502,4.309,3.69,3.248,4.271
	c-2.324,1.271,1.414,3.39,2.822,4.13C5.045,8.856,4.031,9.334,3.023,9.834C2.702,9.459,2.2,9.16,1.873,8.965
	c-0.488-0.292-1.368-0.54-1.747,0.064c-0.316,0.504,0.027,1.128,0.3,1.566c0.186,0.298,0.437,0.74,0.755,0.996
	c-0.552,0.261-1.355,0.881-0.924,1.447c0.828,1.086,2.64,0.257,3.7,0.012c2.26-0.521,4.475-1.241,6.687-1.949
	c0.619,1.089,1.574,2.02,2.237,3.079c0.377,0.601,1.315,1.72,2.15,1.238c0.679-0.392,0.754-1.266,0.768-1.981
	c0.022-1.132-0.266-2.489-0.677-3.633c1.199-0.325,2.387-0.686,3.501-1.229C19.601,8.099,20.402,6.911,19.782,5.841z"/>
</svg>
