<svg xmlns="http://www.w3.org/2000/svg" viewBox="0 0 20 20" width="20" height="20">
<path d="M19.666,10.371c-0.034-0.078-0.077-0.152-0.117-0.228c-0.673-1.469-2.246-2.286-3.968-2.105
	c-0.482,0.051-0.897,0.195-1.255,0.402c-0.095-0.151-0.187-0.305-0.275-0.46c-0.148-0.261-0.688-1.11-1.169-1.256
	c0.031-0.112,0.063-0.224,0.094-0.335c0.402,0.009,0.856-0.031,1.06-0.403c0.059-0.108,0.057-0.274-0.046-0.358
	c-0.322-0.263-0.636-0.169-1.028-0.136c-0.48,0.04-0.958,0.017-1.438,0.078c-0.21,0.027-0.359,0.328-0.121,0.446
	c0.35,0.173,0.697,0.283,1.069,0.336c-0.01,0.035-0.019,0.071-0.029,0.106c-0.112-0.047-0.244-0.053-0.361,0.001
	c-1.473-0.709-3.584-0.213-5.136,0.197c0.001-0.004,0.002-0.008,0.003-0.012c0.087-0.379,0.044-1.186,0.211-1.75
	c0.118-0.169,0.272-0.3,0.478-0.372c0.127-0.045,0.208-0.127,0.251-0.223c0.087,0.011,0.179,0.03,0.285,0.072
	c0.355,0.139,0.496-0.422,0.156-0.564C7.38,3.41,6.836,3.544,6.58,4.19C6.5,4.271,6.428,4.359,6.366,4.454
	C5.969,4.38,5.559,4.352,5.16,4.289C4.932,4.253,4.705,4.212,4.493,4.326C4.075,4.553,4.066,5.383,4.177,5.773
	c0.14,0.49,0.602,0.737,1.075,0.794c0.17,0.021,0.38-0.004,0.589-0.061C5.7,7.236,5.424,7.872,5.096,8.477
	c-1.702-0.676-3.638-0.07-4.581,1.501c-0.589,0.981-0.546,2.226-0.26,3.289c0.058,0.217,0.147,0.467,0.265,0.707
	c0.481,1.052,1.466,1.88,2.642,1.939c0.577,0.029,1.137-0.143,1.646-0.437c1.008-0.393,1.906-1.301,2.266-2.177
	c0.582-1.42,0.131-3.214-1.006-4.227c0.074-0.141,0.147-0.284,0.218-0.429c0.056-0.114,0.103-0.231,0.152-0.348
	c0.572,0.852,1.096,1.734,1.73,2.544c0.394,0.503,0.998,1.411,1.677,1.824c0.028,0.461,0.526,0.864,0.984,0.758
	c0.075,0.099,0.155,0.193,0.226,0.279c0.188,0.226,0.422,0.521,0.726,0.572c0.159,0.027,0.278-0.089,0.249-0.249
	c-0.056-0.318-0.397-0.547-0.628-0.745c-0.045-0.038-0.088-0.079-0.133-0.117c0.049-0.053,0.094-0.109,0.129-0.171
	c0.315-0.084,0.623-0.204,0.814-0.247c0.161-0.037,0.325-0.062,0.488-0.091c0.332,2.334,2.026,4.315,4.704,3.096
	C19.498,14.793,20.597,12.504,19.666,10.371z M6.061,12.763c-0.382,1.105-1.386,2.116-2.523,2.403
	c-0.099,0.025-0.193,0.037-0.286,0.046c-0.224-0.08-0.49-0.113-0.682-0.152c-0.077-0.016-0.16-0.034-0.243-0.054
	c-0.984-0.585-1.392-2.227-1.056-3.253c0.483-1.473,1.799-1.884,3.133-2.096C4.015,10.297,3.63,10.951,3.35,11.7
	C3.203,12.095,3.79,12.297,4,11.974c0.141-0.217,0.288-0.431,0.437-0.644c0.359-0.351,0.678-0.731,0.96-1.142
	C6.219,10.781,6.444,11.657,6.061,12.763z M15.491,15.16c-0.859-0.189-1.472-1.028-1.764-1.935
	c-0.075-0.235-0.123-0.475-0.158-0.717c0.841-0.119,1.689-0.208,2.519-0.376c0.02-0.004,0.033-0.014,0.05-0.021
	c0.204-0.027,0.393-0.246,0.266-0.485c-0.445-0.836-1.004-1.595-1.538-2.372c1.539-0.28,2.908-0.083,3.836,1.402
	c1.123,1.796-0.436,3.76-2.125,4.406c-0.214,0.082-0.418,0.122-0.614,0.134C15.805,15.186,15.648,15.174,15.491,15.16z
	 M14.671,11.001c-0.24,0.028-0.48,0.144-0.72,0.225c-0.139,0.047-0.281,0.093-0.422,0.14c0.04-0.578,0.16-1.153,0.334-1.703
	C14.14,10.104,14.404,10.554,14.671,11.001z M10.442,11.786c-0.017,0.039-0.034,0.078-0.05,0.121c-0.002,0-0.003,0.001-0.005,0.002
	c-0.1-0.047-0.199-0.109-0.297-0.179c-0.754-1.195-1.829-2.42-2.944-3.389C6.977,8.154,6.804,7.971,6.628,7.791
	c0.048-0.146,0.093-0.293,0.136-0.441C7.102,7.346,7.471,7.313,7.855,7.27c0.047-0.001,0.09-0.002,0.128-0.002
	c1.133,0.012,2.258-0.013,3.385-0.043c0.087,0.025,0.168,0.06,0.251,0.093C11.075,8.74,10.563,10.288,10.442,11.786z M11.27,11.972
	c-0.051-0.044-0.108-0.08-0.167-0.111c0.041-0.136,0.084-0.272,0.127-0.408c0.235-0.504,0.401-1.1,0.594-1.521
	c0.292-0.637,0.515-1.308,0.714-1.987c0.328,0.326,0.618,0.685,0.885,1.061c-0.504,0.752-0.756,1.693-0.781,2.644
	C12.19,11.783,11.733,11.9,11.27,11.972z"/>
</svg>
