<svg xmlns="http://www.w3.org/2000/svg" viewBox="0 0 20 20" width="20" height="20">
<path d="M19.591,10.556c-0.751-1.511-2.858-2.453-4.349-1.586c-0.578-0.888-1.184-1.754-1.851-2.568
	c0.048,0.014,0.095,0.028,0.144,0.038c0.529,0.11,1.265,0.205,1.681-0.214c0.347-0.351,0.337-1.155,0.282-1.61
	c-0.075-0.624-0.822-0.73-1.333-0.78c-0.58-0.056-1.035,0.156-1.458,0.55c-0.046,0.043-0.101,0.153-0.132,0.265
	c-0.177-0.157-0.414-0.287-0.636-0.362c0.025-0.143-0.024-0.293-0.19-0.379c-0.373-0.192-0.708-0.401-1.111-0.522
	c-0.212-0.063-0.383,0.076-0.458,0.26c-0.216,0.53-0.225,0.81,0.246,1.166c0.328,0.248,0.783,0.064,1.141,0.136
	c0.688,0.138,0.294,0.395-0.166,0.461C9.975,5.615,7.921,6.29,7.301,7.758C7.018,6.869,6.242,6.853,5.266,6.824
	c-0.976-0.029-1.938-0.141-2.393,0.74C1.861,7.438,0.687,7.649,0.235,8.67C-0.003,9.21,0.29,9.613,0.718,9.652
	c-0.741,0.898-0.957,2.462-0.692,3.407c0.441,1.577,2.269,2.639,3.856,2.328c1.481-0.29,2.531-1.561,2.623-2.989
	c1.326,0.886,4.122,0.805,5.286-0.199c0.839-0.724,1.2-1.676,1.391-2.747c0.126-0.706,0.391-1.569,0.337-2.345
	c0.319,0.619,0.682,1.227,1.019,1.819c0.061,0.108,0.124,0.217,0.188,0.326c-1.09,0.706-1.398,2.595-1.193,3.743
	c0.358,2.005,2.71,2.792,4.444,2.201C19.962,14.518,20.457,12.297,19.591,10.556z M5.225,11.518
	c-0.357-0.004-0.73,0.063-1.076,0.107c-0.232,0.03-0.461,0.061-0.684,0.114c0.361-0.354,0.675-0.769,0.959-1.193
	c0.287,0.224,0.542,0.502,0.745,0.854C5.191,11.438,5.206,11.478,5.225,11.518z M3.525,14.306c-1.141,0.128-2.168-0.705-2.474-1.761
	c-0.201-0.691-0.003-1.452,0.438-2.002c0.231-0.287,0.528-0.482,0.785-0.724c0.683,0.038,1.322,0.201,1.863,0.529
	c-0.396,0.507-0.736,1.062-1.169,1.542c-0.017,0.019-0.025,0.039-0.028,0.058c-0.003,0.007-0.002,0.014-0.003,0.022
	c0,0.001,0,0.002,0,0.002c-0.006,0.06,0.042,0.127,0.109,0.135c0.427,0.051,0.861,0.006,1.289-0.006
	c0.339-0.009,0.705-0.014,1.036-0.109C5.527,13.068,4.615,14.184,3.525,14.306z M17.152,14.237
	c-1.385,0.337-2.549-0.793-2.582-2.113c-0.019-0.774,0.353-1.322,0.76-1.873c0.405,0.635,0.848,1.252,1.342,1.784
	c0.166,0.179,0.468-0.054,0.337-0.26c-0.397-0.627-0.788-1.262-1.185-1.893C18.516,8.995,20.412,13.443,17.152,14.237z"/>
</svg>
