<svg xmlns="http://www.w3.org/2000/svg" viewBox="0 0 20 20" width="20" height="20">
<path d="M16.394,13.791c-0.134-0.055-0.267-0.111-0.401-0.166c-0.015-0.012-0.026-0.026-0.042-0.037
	c-1.752-1.134-3.518-2.506-5.592-2.972c-0.016-0.004-0.031-0.005-0.047-0.009c-0.059-0.116-0.199-0.196-0.351-0.12
	C9.92,10.51,9.877,10.529,9.835,10.55c-1.45-0.057-2.716,0.985-3.957,1.891c-0.019,0.01-0.039,0.019-0.058,0.028
	c-0.777,0.387-1.78,0.711-2.28,1.46c-0.076,0.114-0.01,0.237,0.094,0.286c0.6,1.318,1.155,2.72,1.631,4.111
	c-0.053,0.149,0.008,0.294,0.122,0.398c-0.515-0.194-1.187-0.02-1.681,0.162c-0.134,0.05-0.134,0.223,0,0.273
	c0.293,0.109,0.48,0.342,0.588,0.629c0.019,0.051,0.105,0.065,0.117,0c0.06-0.323-0.081-0.569-0.312-0.737
	c0.562-0.166,1.112-0.163,1.577,0.287c0.08,0.078,0.195,0.036,0.238-0.043c0.005-0.006,0.013-0.009,0.017-0.017
	c0.268-0.599,0.514-1.075,1.079-1.454c0.501-0.337,1.093-0.405,1.612-0.173c-0.206,0.065-0.399,0.165-0.484,0.351
	c-0.159,0.35-0.019,0.596,0.289,0.794c0.075,0.048,0.148,0.017,0.187-0.041C8.754,18.916,9,18.989,9.201,18.863
	c0.001-0.001,0.002-0.002,0.004-0.003l0,0c0.276,0.193,0.64,0.035,0.873-0.182c0.27-0.252,0.318-0.516,0.25-0.803
	c0.594,0.224,1.063,0.593,1.103,1.312c0.011,0.19,0.247,0.316,0.391,0.162c0.321-0.343,0.624-0.559,0.704-0.966
	c0.384,0.305,0.797,0.592,1.171,0.911c0.024,0.03,0.048,0.058,0.072,0.088c0.048,0.062,0.104,0.1,0.162,0.128
	c0.073,0.07,0.149,0.137,0.216,0.212c0.023,0.026,0.052,0.028,0.079,0.022c0.016,0.111,0.17,0.114,0.211,0.011
	c0.019-0.049,0.039-0.098,0.059-0.147c0.021-0.016,0.043-0.034,0.071-0.054c0.165-0.12,0.331-0.21,0.523-0.28
	c0.294-0.108,0.598-0.161,0.906-0.173c-0.092,0.118-0.199,0.226-0.244,0.383c-0.065,0.222,0.089,0.376,0.274,0.451
	c0.147,0.06,0.221-0.143,0.14-0.24c-0.159-0.19-0.077-0.512,0.16-0.615c0.118-0.051,0.081-0.241-0.035-0.267
	c-0.422-0.095-0.892-0.019-1.294,0.125c-0.063,0.023-0.159,0.061-0.26,0.11c0.037-0.102,0.072-0.205,0.109-0.308
	c0.591-1.459,1.2-2.906,1.706-4.403c0.016-0.048,0.01-0.09-0.01-0.123C16.61,14.075,16.581,13.868,16.394,13.791z M9.496,18.641
	c0.285-0.251,0.419-0.521,0.433-0.786C9.946,18.26,9.8,18.52,9.496,18.641z"/>
<path d="M15.414,8.461C14,8.141,12.396,8.33,10.952,8.346C9.065,8.367,7.119,8.338,5.241,8.477
	C5.09,8.489,4.949,8.599,4.955,8.764c0.041,1.116,0.329,2.189,0.771,3.211c0.023,0.053,0.069,0.073,0.117,0.071
	c0.116,0.065,0.264,0.07,0.378-0.047c1.073-1.088,2.095-1.847,3.678-1.809c1.327,0.031,2.56,0.814,3.614,1.541
	c0.149,0.103,0.292,0.1,0.405,0.038c-0.002,0.014-0.005,0.027-0.007,0.041c-0.028,0.237,0.346,0.273,0.407,0.055
	c0.296-1.065,0.815-1.981,1.268-2.978C15.66,8.725,15.611,8.506,15.414,8.461z"/>
<path d="M11.234,6.093c0.004-0.114-0.097-0.206-0.207-0.207c-0.62-0.007-1.232,0.109-1.851,0.11
	c-0.077,0-0.171,0.057-0.183,0.14C8.9,6.76,8.98,7.487,9.249,8.062c0.078,0.167,0.365,0.088,0.35-0.095
	c-0.02-0.232-0.065-0.46-0.109-0.688c0.193,0.005,0.386-0.005,0.579-0.02c0.153,0.015,0.305,0.005,0.444-0.034
	c0.059-0.004,0.117-0.007,0.175-0.014c-0.023,0.319-0.017,0.634,0.057,0.924c0.048,0.189,0.328,0.186,0.378,0
	C11.292,7.501,11.211,6.749,11.234,6.093z"/>
<path d="M10.53,4.379c-0.17-0.204-0.419-0.273-0.663-0.245c0.237-0.365,0.275-0.875,0.097-1.254
	C9.775,2.478,9.296,2.327,8.922,2.468C9.46,0.98,7.8-0.45,6.28,0.133C5.41,0.467,4.879,1.458,5.035,2.369
	C5.08,2.632,5.434,3.834,5.876,3.633C5.713,4.552,6.92,5.585,7.715,4.925c0.244,0.578,0.92,0.609,1.438,0.336
	c0.085,0.279,0.615,0.484,0.874,0.184c0.028-0.033,0.002-0.085-0.043-0.074C9.7,5.443,9.477,5.296,9.413,5.013
	C9.398,4.945,9.322,4.928,9.267,4.953C8.745,5.197,8.185,5.286,7.826,4.778C7.821,4.72,7.765,4.67,7.696,4.68
	C7.291,4.744,6.959,4.776,6.581,4.578C6.125,4.338,6.098,3.873,6.086,3.423C6.085,3.4,6.072,3.383,6.055,3.37
	C6.034,3.335,5.993,3.312,5.939,3.322C5.391,3.419,5.336,1.959,5.36,1.782c0.109-0.788,0.831-1.364,1.592-1.45
	c0.602-0.068,1.177,0.275,1.516,0.75c0.366,0.512,0.283,1.121,0.097,1.676C8.557,2.771,8.545,2.779,8.538,2.793
	c-0.034,0.062,0.025,0.142,0.09,0.129c0.034,0.003,0.069-0.004,0.091-0.037c0.002-0.003,0.003-0.005,0.004-0.008
	c0.372-0.221,0.866-0.072,0.93,0.414c0.049,0.369-0.204,0.676-0.3,1.011c-0.032,0.111,0.095,0.21,0.195,0.15
	c0.035-0.021,0.064-0.049,0.095-0.075c0.222-0.016,0.435,0.059,0.607,0.211c0.097,0.086,0.159,0.186,0.194,0.31
	c0.042,0.147-0.036,0.287,0.008,0.429c0.02,0.063,0.102,0.109,0.162,0.066C10.933,5.166,10.728,4.616,10.53,4.379z"/>
</svg>
