<svg xmlns="http://www.w3.org/2000/svg" viewBox="0 0 20 20" width="20" height="20">
<path d="M17.145,3.093c-0.802-1.765-2.574-1.99-4.332-1.995C10.372,1.09,7.262,0.584,4.97,1.571
	c-1.882,0.81-1.948,3.451-2.135,5.152c-0.333,3.027-0.517,6.274,0.122,9.271c0,0.001,0.001,0.001,0.001,0.002
	c-0.017,0.252,0.107,0.508,0.422,0.593c0.222,0.06,0.444,0.111,0.667,0.158c-0.183,0.542-0.278,1.155-0.137,1.708
	c0.179,0.7,0.855,1.182,1.562,1.221c1.294,0.072,2.327-1.366,2.032-2.589c1.454,0.023,2.916-0.05,4.368-0.031
	c0.215,0.003,0.434,0.018,0.654,0.04c-0.575,1.158,0.257,2.56,1.574,2.518c1.211-0.039,2.221-1.224,1.86-2.424
	c-0.007-0.024-0.018-0.045-0.027-0.067c0.304-0.107,0.596-0.268,0.87-0.505c1.284-1.11,0.623-3.97,0.534-5.375
	C17.18,8.742,18.213,5.444,17.145,3.093z M7.687,3.631c0.116-0.498,0.119-1.023,0.198-1.529c0.001-0.006,0-0.011,0.001-0.017
	c1.077,0.001,2.169,0.144,2.879,0.153c0.575,0.007,1.149-0.003,1.723-0.004c-0.021,0.051-0.031,0.111-0.025,0.18
	c-0.018,0.337-0.028,0.666,0.008,1.002c0.003,0.03,0.016,0.055,0.023,0.083c-0.478,0.036-0.953,0.076-1.414,0.096
	c-1.136,0.05-2.274,0.076-3.413,0.081C7.673,3.661,7.683,3.648,7.687,3.631z M6.053,15.534c-0.543-0.007-1.102-0.043-1.598-0.268
	c-0.733-0.333-0.453-1.046,0.043-1.489c0.472-0.421,1.202-0.125,1.592,0.247c0.191,0.183,0.331,0.432,0.347,0.699
	C6.456,15.052,6.201,15.269,6.053,15.534z M14.748,15.833c-0.592,0.145-1.038-0.509-1.184-0.985
	c-0.078-0.254-0.103-0.562,0.013-0.809c0.132-0.281,0.458-0.291,0.63-0.527c0.587,0.102,1.183,0.2,1.66,0.594
	C16.605,14.716,15.329,15.691,14.748,15.833z M16.127,11.243c0.014,0.17,0.041,0.375,0.073,0.601
	c-4.113-0.102-8.333-0.027-12.45,0.122c-0.016-0.719-0.03-1.438-0.017-2.157C3.76,8.27,3.754,6.47,4.13,4.872
	c2.584,0.387,5.279,0.229,7.889,0.348c0.874,0.04,3.511,0.5,4.24-0.323c0.009,0.093,0.017,0.188,0.022,0.286
	C16.395,7.205,15.961,9.224,16.127,11.243z"/>
<path d="M1.744,8.937c-0.15-0.808-0.229-1.629-0.196-2.451c0.031-0.766-1.019-0.813-1.258-0.17
	c-0.35,0.942-0.18,2.06-0.008,3.024C0.452,10.299,1.923,9.895,1.744,8.937z"/>
<path d="M19.9,7.763c-0.041-0.412-0.067-0.883-0.204-1.276c-0.184-0.53-1.102-0.665-1.211,0
	c-0.129,0.784-0.019,1.669,0.046,2.459c0.077,0.932,1.446,0.958,1.468,0C20.008,8.554,19.939,8.151,19.9,7.763z"/>
</svg>
