<svg xmlns="http://www.w3.org/2000/svg" viewBox="0 0 20 20" width="20" height="20">
<path d="M18.299,5.051c-0.928-3.254-4.404-4.784-7.547-4.981c-3.182-0.2-6.47,0.704-7.678,3.955
	C1.528,8.186,1.697,13.185,2.32,17.52c0.016,0.112,0.08,0.171,0.158,0.194c0.039,0.074,0.102,0.134,0.196,0.151
	c0.291,0.053,0.583,0.1,0.876,0.143c-0.328,0.571-0.269,1.411,0.42,1.671c0.408,0.154,0.802-0.054,1.033-0.391
	c0.186-0.272,0.226-0.662,0.236-0.981c0.001-0.033-0.007-0.07-0.008-0.104c3.211,0.283,6.501,0.096,9.737,0.025
	c-0.099,0.299-0.05,0.695,0.012,0.936c0.143,0.553,0.667,0.957,1.242,0.804c0.498-0.133,0.69-0.678,0.74-1.134
	c0.02-0.183,0.025-0.409-0.006-0.627c0.308,0,0.616-0.002,0.922,0.003c0.192,0.003,0.329-0.079,0.414-0.197
	c0.165-0.045,0.291-0.177,0.263-0.406C18.052,13.393,19.493,9.237,18.299,5.051z M4.534,12.933c0.013,0.006,0.022,0.016,0.037,0.021
	c0.736,0.269,1.292,0.41,1.347,1.309c0.048,0.778-0.799,1.149-1.456,1.129c-0.896-0.027-1.089-1.087-0.76-1.738
	C3.855,13.35,4.183,13.109,4.534,12.933z M16.984,14.227c-0.23,0.895-1.427,1.027-1.995,0.445c-0.5-0.512-0.133-1.046,0.283-1.444
	c0.149-0.142,0.452-0.385,0.74-0.505c0.241,0.081,0.497,0.093,0.713,0.308C17.029,13.333,17.086,13.833,16.984,14.227z M3.854,7.92
	c0.109-1.144,0.42-2.28,0.839-3.353c1.26,0.332,2.931-0.135,4.142-0.06c2.362,0.145,4.759-0.023,7.109,0.121
	c0.718,1.632,0.901,3.253,0.975,5.137c-1.9-0.126-3.861,0.087-5.736,0.198c-2.439,0.145-4.831-0.054-7.252,0.13
	c-0.008-0.017-0.012-0.034-0.023-0.051C3.57,9.526,3.798,8.497,3.854,7.92z"/>
</svg>
