<svg xmlns="http://www.w3.org/2000/svg" viewBox="0 0 20 20" width="20" height="20">
<path d="M19.142,7.062c-0.411-0.238-1.041-0.19-1.472-0.049c-0.095,0.031-0.196,0.075-0.291,0.13
	c-0.437-1.533-0.566-3.125-1.512-4.496c-1.003-1.454-3.567-0.933-5.032-0.917c-1.886,0.02-4.738-0.666-6.342,0.691
	C3.34,3.398,2.304,5.611,2.262,7.24C1.975,7.003,1.544,6.882,1.209,6.911C0.632,6.962,0.129,7.43,0.088,8.02
	C0.055,8.488,0.375,8.846,0.765,9.055c0.191,0.102,0.47,0.219,0.741,0.262c-0.199,2.196-1.053,5.641,0.734,7.184
	c1.381,1.192,2.925-0.215,3.037-1.654c1.629,0.475,3.337,0.533,5.028,0.606c1.436,0.062,2.94,0.166,4.407,0.117
	c0.378,1.213,1.988,1.686,3.217,0.921c0.893-0.556,0.858-2.073,0.865-2.968c0.009-1.282-0.115-2.839-0.467-4.184
	c0.534-0.004,1.026-0.302,1.328-0.751C20.038,8.019,19.668,7.367,19.142,7.062z M5.629,11.869c-0.333,0.083-0.718,0.045-1.059,0.054
	c-0.777,0.021-1.522-0.07-2.286-0.159c-0.11-0.766,0.004-1.637,0.962-1.675c0.791-0.032,1.608,0.572,2.201,1.035
	C5.708,11.327,6.168,11.734,5.629,11.869z M12.749,8.093c-1.204,0.126-2.425,0.147-3.501,0.175c-1.262,0.033-2.515-0.1-3.75-0.349
	C4.858,7.791,4.284,7.515,3.675,7.331C4.014,6.098,4.402,4.685,5.177,3.74c1.028-1.254,4.235-0.552,5.658-0.559
	c1.894-0.009,3.762-0.433,4.53,1.73C15.639,5.684,15.763,6.546,16,7.343c-0.349,0.149-0.724,0.265-1.107,0.367
	C14.178,7.834,13.464,7.964,12.749,8.093z M17.49,11.089c-0.331,0.647-1.235,0.738-1.858,0.883c-0.381,0.088-0.76,0.14-1.151,0.145
	c-0.234,0.003-0.45-0.073-0.669-0.122c0.013-0.046,0.015-0.093-0.015-0.141c-0.453-0.742,0.999-1.218,1.473-1.373
	C15.678,10.348,18.066,9.965,17.49,11.089z"/>
</svg>