<svg xmlns="http://www.w3.org/2000/svg" viewBox="0 0 20 20" width="20" height="20">
<path d="M19.665,14.11c-0.268-0.458-0.959-0.965-1.678-1.211c0.494-0.067,1.002-0.067,1.513,0.009
	c0.311,0.046,0.595-0.237,0.42-0.547c-0.586-1.042-1.884-1.344-3.03-1.268c0.298-1.187,0.655-2.626,0.091-3.731
	c-0.344-0.672-0.805-1.205-1.429-1.645c-0.719-0.506-2.029-1.013-2.472-1.878c-0.001-0.023,0.001-0.048,0-0.071
	c0.748,0.791,2.26,1.064,2.824-0.055c0.611-1.211-0.39-2.165-1.658-1.99c-0.308,0.043-0.566,0.128-0.833,0.285
	c-0.191,0.112-0.342,0.3-0.487,0.462c-0.392,0.436-0.934,0.548-1.503,0.538c-0.434-0.008-1.298,0.117-1.461,0.619
	c-0.122,0.374,0.007,0.985,0.51,0.985c0.68,0,1.368-0.742,2.011-1.083c-0.414,2.51,2.035,4.367,0.032,6.751
	c-0.924,1.1-2.341,1.24-3.68,1.315c-1.026,0.057-1.842-0.39-1.35-1.457c0.154-0.333,0.359-0.643,0.518-0.975
	C8.158,8.841,7.971,8.478,7.6,8.461C5.78,8.378,3.912,8.333,2.097,8.563C1.403,8.651,1.098,9.55,0.756,10.042
	c-0.945,1.361-1.39,3.311,0.584,3.699c-0.266,0.425-0.438,0.921-0.487,1.372c-0.149,1.371,0.965,2.43,2.27,2.473
	c1.331,0.044,2.375-0.999,2.5-2.274c0.021-0.216-0.009-0.43-0.077-0.637c1.608,0.419,3.485,0.04,5.127,0.289
	c1.166,0.177,2.142-0.231,3.077-0.829c-0.036,0.292-0.041,0.586-0.009,0.873c0.051,0.466,0.746,0.491,0.745,0
	c0-0.045,0.004-0.087,0.005-0.132c0.284-0.352,0.611-0.663,0.967-0.931c-0.377,0.616-0.396,1.512-0.115,2.142
	c0.547,1.23,1.94,1.839,3.213,1.383C19.938,16.977,20.373,15.323,19.665,14.11z M3.389,16.393c-0.764,0.193-1.362-0.374-1.407-1.11
	c-0.045-0.732,0.459-0.938,1.007-1.115c0.469,0.21,0.99,0.276,1.308,0.763C4.729,15.597,3.964,16.248,3.389,16.393z M17.895,16.422
	c-0.664,0.173-1.325-0.313-1.514-0.922c-0.184-0.588,0.149-1.053,0.407-1.542c0.178-0.002,0.357-0.012,0.539,0.017
	c0.453,0.071,0.858,0.294,1.184,0.61C19.185,15.237,18.671,16.22,17.895,16.422z"/>
</svg>
