<svg xmlns="http://www.w3.org/2000/svg" viewBox="0 0 20 20" width="20" height="20">
<path d="M7.91,3.025C7.9,3.113,7.952,3.167,8.019,3.19C8.032,3.216,8.055,3.238,8.09,3.245
	c0.526,0.113,1.028,0.123,1.566,0.103c0.706-0.026,1.372,0.038,2.074,0.076c0.17,0.009,0.256-0.16,0.231-0.299
	c0.007-0.012,0.019-0.018,0.023-0.033C12.495,1.226,8.167,0.822,7.91,3.025z"/>
<path d="M19.946,9.469c-0.134-0.453-0.53-0.783-0.981-0.888c-0.269-0.063-0.69-0.081-1.028,0.006
	C17.901,8.59,17.864,8.594,17.828,8.6c-0.488-1.433-0.95-3.062-1.941-4.227c-0.821-0.964-2.455-1.286-3.653-1.208
	c-0.232,0.015-0.227,0.334,0,0.356c0.01,0.001,0.018,0.002,0.028,0.003c-1.003,1.482-3.831,0.832-4.941-0.158
	C7.313,3.359,7.303,3.356,7.294,3.35C7.307,3.295,7.29,3.238,7.219,3.208C6.325,2.83,5.384,3.325,4.612,3.942
	c-0.321,0.205-0.607,0.47-0.861,0.779C3.751,4.721,3.75,4.722,3.749,4.722C2.931,5.534,1.976,7.04,1.985,8.292
	C1.822,8.28,1.653,8.298,1.489,8.331C0.883,8.269,0.197,8.539-0.005,9.102c-0.155,0.433-0.083,0.999,0.226,1.352
	c0.164,0.187,0.469,0.379,0.76,0.423C0.675,11.841,0.636,13,0.591,13.835C0.563,14.358,0.54,14.99,0.59,15.622
	c0.012,1.244,0.312,2.322,1.235,2.778c0.141,0.07,0.304,0.115,0.475,0.148c0.275,0.09,0.557,0.104,0.839,0.055
	c0.479-0.022,0.959-0.116,1.322-0.224c0.762-0.227,0.786-1.069,0.742-1.709c0.604-0.111,1.208-0.145,1.813-0.137
	c0.482,0.051,0.97,0.075,1.458,0.087c0.248,0.024,0.495,0.051,0.743,0.08c1.674,0.197,3.369-0.024,5.046-0.052
	c0.047,0.103,0.104,0.201,0.172,0.292c0.362,1.474,2.087,1.924,3.457,1.184c0.781-0.422,0.862-1.56,0.91-2.328
	c0.091-1.45,0.212-3.278-0.261-4.686C19.415,11.224,20.218,10.389,19.946,9.469z M4.599,13.011
	c-0.356,0.219-0.932,0.265-1.268-0.015c-0.432-0.361-0.033-0.885,0.346-1.126c0.41-0.126,0.788-0.04,1.078,0.282
	C5.032,12.46,4.926,12.809,4.599,13.011z M14.247,9.192c-0.33,0.108-0.675,0.197-1.058,0.24c-1.267,0.14-2.501,0.045-3.767-0.048
	C9.068,9.358,8.715,9.339,8.363,9.321C7.545,9.189,6.76,9.056,6.061,8.998C5.9,8.984,5.384,9.035,4.879,9.02
	C4.543,8.898,4.135,8.642,3.84,8.749c0.151-1.106,0.796-2.261,1.635-3.016C5.826,5.501,6.238,5.317,6.566,5.07
	C7.233,4.839,7.981,4.822,8.71,4.848c0.645,0.161,1.359,0.193,2.017,0.081c0.829,0.037,1.652,0.105,2.466,0.3
	c0.101,0.024,0.19,0.061,0.284,0.091c0.422,0.29,0.733,0.751,0.991,1.175c0.321,0.53,0.571,1.092,0.787,1.672
	c0.033,0.09,0.062,0.182,0.09,0.274C15.013,8.761,14.646,9.009,14.247,9.192z M16.205,13.033c-0.35,0.016-0.594-0.291-0.674-0.601
	c-0.05-0.192-0.013-0.345,0.069-0.478c0.476-0.047,1.037,0.029,1.324,0.301C17.064,12.701,16.604,13.014,16.205,13.033z
	 M18.376,10.729c0.253-0.039,0.504-0.098,0.763-0.16C18.914,10.71,18.638,10.78,18.376,10.729z"/>
</svg>
