<svg xmlns="http://www.w3.org/2000/svg" viewBox="0 0 20 20" width="20" height="20">
<path d="M18.97,19.532c-0.643-0.808-1.447-1.534-2.149-2.298c-0.417-0.454-0.857-0.912-1.339-1.312
	c0.247,0.027,0.493,0.057,0.739,0.097c0.174,0.267,0.634,0.209,0.664-0.186c0.16-2.108-0.188-4.233-0.178-6.346
	c0.011-2.242,0.427-4.484,0.207-6.72c-0.149-1.507-2.731-1.615-4.913-1.504c0.145-0.375,0.104-0.81-0.229-1.077
	c-0.441-0.355-1.238-0.104-1.729-0.01C9.556,0.267,9.054,0.292,8.56,0.315C8.249,0.33,7.974,0.221,7.668,0.324
	C7.225,0.474,7.358,1.076,7.453,1.44c-1.16,0.003-2.33,0.04-3.45,0.232C2.74,1.89,2.449,2.487,2.282,3.701
	C2.018,5.628,2.094,7.599,2.147,9.538c0.033,1.205,0.025,2.426,0.093,3.637c0.003,0.529,0.043,1.055,0.144,1.573
	c0.046,0.346,0.098,0.692,0.168,1.034c0.021,0.104,0.102,0.152,0.188,0.156c0.006,0.014,0.01,0.029,0.017,0.044
	c0.092,0.215,0.344,0.189,0.487,0.055c0.111,0.017,0.221,0.037,0.332,0.052c-0.293,0.227-0.555,0.611-0.715,0.797
	c-0.696,0.813-1.457,1.568-2.116,2.415c-0.069,0.088,0.016,0.225,0.125,0.162c0.831-0.476,1.489-1.214,2.164-1.881
	c0.238-0.235,0.455-0.49,0.684-0.733c0.18-0.191,0.454-0.309,0.59-0.529c0.027-0.044,0.033-0.095,0.03-0.145
	c0.258,0.023,0.516,0.038,0.775,0.049c-0.447,0.482-0.836,1.012-1.234,1.536c-0.437,0.575-0.994,1.17-1.255,1.848
	c-0.05,0.131,0.114,0.223,0.219,0.168c0.509-0.266,0.921-0.746,1.3-1.207c0.031,0.02,0.065,0.034,0.107,0.033
	c3.336-0.101,6.679-0.152,10.02-0.268c0.152-0.005,0.248-0.091,0.292-0.198c0.05,0.056,0.1,0.112,0.149,0.167
	c0.497,0.558,0.994,1.606,1.81,1.695c0.169,0.018,0.255-0.192,0.184-0.321c-0.355-0.644-1.058-1.26-1.544-1.824
	c-0.646-0.75-1.428-1.412-2.213-2.023c0.575-0.014,1.148-0.008,1.719,0.024c0.579,0.726,1.197,1.432,1.819,2.118
	c0.63,0.695,1.365,1.494,2.237,1.878C18.939,19.947,19.117,19.716,18.97,19.532z M8.342,0.851C8.811,0.939,9.321,0.88,9.795,0.864
	c0.399-0.013,0.792-0.117,1.19-0.15c0.383-0.032,0.362,0.294,0.431,0.583c-0.939,0.063-1.745,0.149-2.159,0.149
	c-0.484,0-0.976-0.004-1.471-0.005C7.825,1.103,7.858,0.761,8.342,0.851z M10.131,2.187c-0.006,0.021-0.009,0.042-0.009,0.064
	C9.55,2.233,8.977,2.21,8.404,2.19c0.284-0.002,0.568-0.005,0.853-0.003C9.548,2.189,9.84,2.187,10.131,2.187z M4.76,13.05
	c-0.009-0.456,0.29-0.617,0.637-0.819c0.011-0.006,0.016-0.017,0.024-0.025c0.021,0.005,0.041,0.016,0.062,0.017
	c0.872,0.005,0.9,1.307,0.119,1.522C5.135,13.873,4.768,13.494,4.76,13.05z M14.142,17.667c-1.721-0.031-3.425-0.013-5.14,0.157
	c-1.495,0.148-3.021,0.14-4.506,0.317c0.271-0.322,0.544-0.644,0.808-0.971c2.67,0.406,5.598,0.07,8.289-0.118
	C13.773,17.258,13.958,17.462,14.142,17.667z M13.169,16.551c-0.996-0.12-2.011,0.041-3.017,0.111
	c-1.518,0.105-3.012,0.166-4.529,0.097c0.092-0.121,0.183-0.243,0.271-0.368c0.036-0.051,0.049-0.102,0.053-0.152
	c2.211,0.001,4.448-0.319,6.668-0.398C12.792,16.084,12.978,16.32,13.169,16.551z M14.201,12.956
	c-0.12,0.384-0.506,0.769-0.889,0.446c-0.225-0.189-0.341-0.538-0.301-0.826c0.048-0.349,0.282-0.474,0.547-0.63
	c0.101,0.069,0.206,0.12,0.314,0.171c0.078,0.079,0.151,0.168,0.218,0.269c0.049,0.073,0.105,0.129,0.164,0.172
	C14.266,12.691,14.24,12.834,14.201,12.956z M8.93,9.539C7.399,9.507,5.84,9.838,4.32,9.718c0-0.001,0.001-0.002,0.002-0.003
	c0.252-0.828,0.243-1.74,0.251-2.598c0.01-1.089,0.139-2.211,0.063-3.301C5.494,4.007,6.676,3.624,7.39,3.577
	c0.667-0.044,1.34-0.069,2.015-0.081c1.062,0.05,2.122,0.092,3.181,0.07c0.631,0.04,1.259,0.094,1.881,0.166
	c-0.116,0.927-0.047,1.835,0.045,2.768c0.108,1.088,0.116,2.156,0.159,3.239C12.766,9.525,10.848,9.58,8.93,9.539z"/>
</svg>
